<svg xmlns="http://www.w3.org/2000/svg" viewBox="0 0 530.9 69.2"><defs><style>.cls-1{fill:#091b59;}</style></defs><g id="Layer_2" data-name="Layer 2"><g id="Layer_1-2" data-name="Layer 1"><path class="cls-1" d="M12.3,34.6A22.28,22.28,0,0,0,34.5,56.8H64.2V69.1H34.6A34.55,34.55,0,1,1,34.6,0H64.3V12.3H34.6A22.32,22.32,0,0,0,12.3,34.6Z"/><path class="cls-1" d="M160.5,69.2H146.7l-6.3-12.3L125.3,27.3,110.2,56.9l-6.3,12.3H90l6.3-12.3L125.3,0l28.9,56.8Z"/><path class="cls-1" d="M235.7.1V12.4H207.3V69.2H195V12.4H166.6V.1Z"/><path class="cls-1" d="M312.4,69.2H298.6l-6.3-12.3L277.2,27.3,262.1,56.9l-6.3,12.3H242l6.3-12.3L277.2,0l28.9,56.8Z"/><path class="cls-1" d="M392.6,56.9V69.2H357.5a21.33,21.33,0,0,1-9.7-2.3,22.23,22.23,0,0,1-10-10.1,21.33,21.33,0,0,1-2.3-9.7V.1h12.3V48.4a10,10,0,0,0,8.4,8.4Z"/><path class="cls-1" d="M422.2,69.2V0h12.3V69.2Z"/><path class="cls-1" d="M530.9,34.6A34.6,34.6,0,1,1,496.4,0,34.61,34.61,0,0,1,530.9,34.6Zm-12.3,0a22.2,22.2,0,1,0-22.2,22.2A22.28,22.28,0,0,0,518.6,34.6Z"/></g></g></svg>