<svg id="logo_januarycapital_white" xmlns="http://www.w3.org/2000/svg" xmlns:xlink="http://www.w3.org/1999/xlink" width="242.3" height="88.308" viewBox="0 0 242.3 88.308">
  <defs>
    <clipPath id="clip-path">
      <rect id="Rectangle_15066" data-name="Rectangle 15066" width="242.3" height="88.308" fill="#fff"/>
    </clipPath>
  </defs>
  <g id="Group_13485" data-name="Group 13485" clip-path="url(#clip-path)">
    <path id="Path_14080" data-name="Path 14080" d="M40.014,14.778c-4.133,0-5.657,1.278-5.9,4.525H29.093c.246-4.821,3.345-8.609,10.921-8.609,5.56,0,9.692,2.115,9.692,8.807V31.455c0,1.771.393,2.706,2.411,2.51v2.459a7.786,7.786,0,0,1-3,.541c-2.754,0-4.034-.983-4.525-3.444h-.1c-1.574,2.215-4.427,3.74-8.315,3.74-5.116,0-8.265-2.952-8.265-7.184,0-5.51,4.083-7.231,10.38-8.462,3.886-.738,6.248-1.23,6.248-3.642,0-1.819-1.082-3.2-4.526-3.2m4.526,12.2V23.19a17.263,17.263,0,0,1-5.263,1.672c-4.281.935-6.15,2.165-6.15,4.723,0,2.312,1.378,3.593,4.181,3.593,4.281,0,7.233-2.117,7.233-6.2" transform="translate(-3.513 -1.346)" fill="#fff"/>
    <path id="Path_14081" data-name="Path 14081" d="M81.005,19.155V36.523H75.79V20.631c0-3.4-1.427-5.559-4.969-5.559-3.985,0-6.543,2.41-6.543,6.149v15.3H59.113V11.383h5.166v3.247h.1c1.329-1.968,3.935-3.936,8.265-3.936,4.675,0,8.364,2.706,8.364,8.462" transform="translate(-7.441 -1.346)" fill="#fff"/>
    <path id="Path_14082" data-name="Path 14082" d="M110.167,11.482v25.14H105V33.374h-.1c-1.329,1.969-3.936,3.935-8.266,3.935-4.673,0-8.363-2.706-8.363-8.462V11.482h5.214v15.89c0,3.4,1.427,5.56,4.969,5.56,3.985,0,6.543-2.412,6.543-6.15v-15.3Z" transform="translate(-11.112 -1.445)" fill="#fff"/>
    <path id="Path_14083" data-name="Path 14083" d="M128.85,14.778c-4.133,0-5.657,1.278-5.9,4.525h-5.018c.246-4.821,3.345-8.609,10.921-8.609,5.56,0,9.692,2.115,9.692,8.807V31.455c0,1.771.393,2.706,2.411,2.51v2.459a7.786,7.786,0,0,1-3,.541c-2.754,0-4.034-.983-4.525-3.444h-.1c-1.574,2.215-4.427,3.74-8.315,3.74-5.116,0-8.265-2.952-8.265-7.184,0-5.51,4.083-7.231,10.38-8.462,3.886-.738,6.248-1.23,6.248-3.642,0-1.819-1.082-3.2-4.526-3.2m4.526,12.2V23.19a17.263,17.263,0,0,1-5.263,1.672c-4.281.935-6.15,2.165-6.15,4.723,0,2.312,1.378,3.593,4.181,3.593,4.281,0,7.233-2.117,7.233-6.2" transform="translate(-14.696 -1.346)" fill="#fff"/>
    <path id="Path_14084" data-name="Path 14084" d="M162.1,10.953v4.872H162c-4.969-.837-8.955,2.509-8.955,7.871v12.84h-5.166V11.4h5.166V16.12h.1c1.329-3.149,3.4-5.314,6.691-5.314a15.977,15.977,0,0,1,2.263.147" transform="translate(-18.615 -1.36)" fill="#fff"/>
    <path id="Path_14085" data-name="Path 14085" d="M16.383,55.164c-7.576,0-10.577,6.345-10.577,13.283,0,6.985,3,13.332,10.577,13.332,6.544,0,9.052-4.281,9.446-8.56h5.855C30.9,81.141,25.484,86.8,16.531,86.8,6.4,86.8,0,79.073,0,68.448c0-10.579,6.4-18.3,16.531-18.3,8.9,0,14.316,5.657,15.153,12.841H25.829c-.639-3.544-2.951-7.823-9.446-7.823" transform="translate(0 -6.312)" fill="#fff"/>
    <path id="Path_14086" data-name="Path 14086" d="M50.772,65.767c-4.133,0-5.657,1.279-5.9,4.525H39.851c.246-4.821,3.345-8.609,10.921-8.609,5.559,0,9.692,2.115,9.692,8.807V82.444c0,1.771.393,2.706,2.411,2.51v2.459a7.784,7.784,0,0,1-3,.541c-2.756,0-4.035-.983-4.526-3.444h-.1c-1.574,2.215-4.428,3.74-8.315,3.74-5.116,0-8.265-2.952-8.265-7.184,0-5.51,4.083-7.231,10.38-8.461,3.886-.739,6.248-1.231,6.248-3.642,0-1.82-1.082-3.2-4.526-3.2m4.526,12.2V74.179a17.261,17.261,0,0,1-5.264,1.672c-4.281.935-6.149,2.165-6.149,4.723,0,2.312,1.378,3.593,4.182,3.593,4.28,0,7.232-2.116,7.232-6.2" transform="translate(-4.868 -7.764)" fill="#fff"/>
    <path id="Path_14087" data-name="Path 14087" d="M94,74.967c0,8.265-4.773,13.283-11.168,13.283a9.1,9.1,0,0,1-7.725-3.74h-.1V96.072H69.8v-33.7H75.01v2.951h.1a9.308,9.308,0,0,1,7.725-3.641C89.229,61.683,94,66.7,94,74.967m-5.215,0c0-4.92-2.411-9.053-6.937-9.053-4.182,0-6.789,3.444-6.789,9.053,0,5.559,2.608,9.052,6.789,9.052,4.526,0,6.937-4.132,6.937-9.052" transform="translate(-8.786 -7.764)" fill="#fff"/>
    <path id="Path_14088" data-name="Path 14088" d="M101.2,54.089a2.933,2.933,0,1,1,2.9,2.755,2.779,2.779,0,0,1-2.9-2.755m5.51,32.127h-5.165V61.076h5.165Z" transform="translate(-12.739 -6.468)" fill="#fff"/>
    <path id="Path_14089" data-name="Path 14089" d="M120.023,65.561V79.191c0,2.853,1.377,3.2,4.723,3v4.231a14.952,14.952,0,0,1-3.542.393c-4.133,0-6.4-1.868-6.4-7.182V65.561h-3.641v-4.23h3.641V53.41h5.215v7.921h4.723v4.23Z" transform="translate(-13.993 -6.723)" fill="#fff"/>
    <path id="Path_14090" data-name="Path 14090" d="M141.618,65.767c-4.134,0-5.657,1.279-5.9,4.525H130.7c.245-4.821,3.344-8.609,10.921-8.609,5.559,0,9.692,2.115,9.692,8.807V82.444c0,1.771.392,2.706,2.41,2.51v2.459a7.786,7.786,0,0,1-3,.541c-2.754,0-4.033-.983-4.524-3.444h-.1c-1.573,2.215-4.427,3.74-8.314,3.74-5.117,0-8.265-2.952-8.265-7.184,0-5.51,4.082-7.231,10.38-8.461,3.886-.739,6.247-1.231,6.247-3.642,0-1.82-1.082-3.2-4.525-3.2m4.525,12.2V74.179a17.246,17.246,0,0,1-5.262,1.672c-4.282.935-6.151,2.165-6.151,4.723,0,2.312,1.378,3.593,4.181,3.593,4.281,0,7.232-2.116,7.232-6.2" transform="translate(-16.303 -7.764)" fill="#fff"/>
    <rect id="Rectangle_15061" data-name="Rectangle 15061" width="5.216" height="35.177" transform="translate(140.518 44.572)" fill="#fff"/>
    <path id="Path_14091" data-name="Path 14091" d="M15.609,0V24.156c0,3.935-.788,6.74-5.166,6.74-2.93,0-4.218-1.233-4.757-3.2L.542,29.458c1.246,3.705,4.176,6.456,10.049,6.456,8.462,0,10.823-5.707,10.823-11.758V0Z" transform="translate(-0.068)" fill="#fff"/>
    <path id="Path_14092" data-name="Path 14092" d="M185.74,11.482l-6.626,19.235h-.1L171.98,11.482h-5.559l9.1,22.582a5.327,5.327,0,0,1-.69,5.461,3.509,3.509,0,0,1-2.111,1.247v4.392c.148.005.286.017.439.017,4.821,0,6.444-3.1,7.871-6.985l10.218-26.714Z" transform="translate(-20.948 -1.445)" fill="#fff"/>
    <rect id="Rectangle_15062" data-name="Rectangle 15062" width="28.224" height="5.2" transform="translate(172.33 42.107)" fill="#fff"/>
    <rect id="Rectangle_15063" data-name="Rectangle 15063" width="5.2" height="28.087" transform="translate(204.915 51.661)" fill="#fff"/>
    <rect id="Rectangle_15064" data-name="Rectangle 15064" width="28.225" height="5.2" transform="translate(214.076 42.107)" fill="#fff"/>
    <rect id="Rectangle_15065" data-name="Rectangle 15065" width="5.2" height="28.087" transform="translate(204.915 10.034)" fill="#fff"/>
    <path id="Path_14093" data-name="Path 14093" d="M271.175,16.805,267.5,13.128,245.337,36.164l3.677,3.677Z" transform="translate(-30.882 -1.652)" fill="#fff"/>
    <path id="Path_14094" data-name="Path 14094" d="M225.28,62.7,221.6,59.023,199.442,82.059l3.677,3.677Z" transform="translate(-25.105 -7.43)" fill="#fff"/>
  </g>
</svg>
